<?xml version="1.0" standalone="no"?>
<!DOCTYPE svg PUBLIC "-//W3C//DTD SVG 20010904//EN"
 "http://www.w3.org/TR/2001/REC-SVG-20010904/DTD/svg10.dtd">
<svg version="1.0" xmlns="http://www.w3.org/2000/svg"
 width="340.000000pt" height="161.000000pt" viewBox="0 0 340.000000 161.000000"
 preserveAspectRatio="xMidYMid meet">

<g transform="translate(0.000000,161.000000) scale(0.100000,-0.100000)"
fill="#000000" stroke="none">
<path d="M524 819 c-274 -430 -503 -788 -507 -796 -7 -11 31 -13 240 -11 l248
3 245 406 c135 223 252 416 260 428 15 22 24 8 275 -408 l260 -431 244 0 c193
0 242 3 238 13 -3 9 -990 1560 -1002 1574 -1 2 -226 -349 -501 -778z"/>
<path d="M2654 1171 c-192 -318 -262 -426 -270 -418 -6 7 -122 198 -258 425
l-248 412 -254 0 -254 0 63 -98 c533 -837 953 -1492 958 -1492 3 0 133 199
290 442 l284 441 3 -436 2 -437 215 0 215 0 0 795 0 795 -244 0 -244 0 -258
-429z"/>
</g>
</svg>
